<svg id="图层_1" data-name="图层 1" xmlns="http://www.w3.org/2000/svg" viewBox="0 0 32 32"><defs><style>.cls-1{fill:#080102;}.cls-2{fill:#fff;}</style></defs><rect class="cls-1" width="32" height="32"/><rect class="cls-1" y="10.42" width="32" height="11.15"/><rect class="cls-2" x="2.83" y="13.12" width="4.89" height="0.79"/><path class="cls-2" d="M6.79,18.34s-.08-.14-.08-.38V16.1H8.28v-.79h-6v.79H3.8a6.52,6.52,0,0,1-1.75,2.74l.53.59a7.32,7.32,0,0,0,2-3.33H5.93V18a1.11,1.11,0,0,0,1.23,1.27H8.65v-.8H7.16A.52.52,0,0,1,6.79,18.34Z"/><path class="cls-2" d="M14.94,14v-.8H10.77a4.08,4.08,0,0,0,.11-.55l-.78-.08a5.67,5.67,0,0,1-1.4,2.88l.58.54a6.67,6.67,0,0,0,1.24-2Z"/><rect class="cls-2" x="10.52" y="14.48" width="3.96" height="0.79"/><path class="cls-2" d="M16.47,15.13l.48.59A6,6,0,0,0,18.17,14h.68v1.46h.76V14h.68a6,6,0,0,0,1.22,1.72l.48-.59A4.49,4.49,0,0,1,21.15,14h1v-.76H19.61v-.61h-.76v.61H16.37V14h.94A4.49,4.49,0,0,1,16.47,15.13Z"/><path class="cls-2" d="M29.93,17.62a15.35,15.35,0,0,1-1.68-2.23v-.91a9.11,9.11,0,0,0,.92.94l.47-.56a12.27,12.27,0,0,1-1.39-1.51v-.66h-.72v.72l-1.1,1.07-1.05-1v-.82h-.73v.66a11.32,11.32,0,0,1-1.38,1.51l.46.56a8.19,8.19,0,0,0,.92-.94v.91A15,15,0,0,1,23,17.62l.52.5a13.06,13.06,0,0,0,1.15-1.42v2.6h.73V16.74l.89,1.18h.35l.91-1.27V19.3h.72V16.7a14.37,14.37,0,0,0,1.15,1.42Zm-3.5-.68-1.05-1.41v-1l1.07,1,1.08-1.07v1Z"/><path class="cls-2" d="M14.52,16.21v-.14l-.22-.29H9.88v.8h3.86A4.23,4.23,0,0,0,15,19.47l.54-.58A3.35,3.35,0,0,1,14.52,16.21Z"/><path class="cls-2" d="M21.45,16.79h.71v-.73H21.05v-.49h-.72v.49h-.85v.73H20c-.19.27-.45.64-.73,1a8.88,8.88,0,0,1-.72-1H19v-.73h-.85v-.49h-.72v.49H16.3v.73H17a6,6,0,0,1-1.26,1.42l.42.59a6.11,6.11,0,0,0,1.24-1.32v1.83h.72V17.54a8.87,8.87,0,0,0,.9,1.1h.39v0a10.08,10.08,0,0,0,.9-1.1v1.79h.72V17.48a5.88,5.88,0,0,0,1.24,1.32l.42-.59A6,6,0,0,1,21.45,16.79Z"/></svg>