<svg xmlns="http://www.w3.org/2000/svg" width="164" height="52" viewBox="0 0 164 52">
  <defs>
    <style>
      .cls-1 {
        fill-rule: evenodd;
        fill:#fff;
      }
    </style>
  </defs>
  <path id="logo" class="cls-1" d="M476.97,4997.63a4.02,4.02,0,1,1,4.03-4.02A4.019,4.019,0,0,1,476.97,4997.63Zm0-7.56a3.54,3.54,0,1,0,3.507,3.54A3.559,3.559,0,0,0,476.97,4990.07Zm1.644,5.76h-0.575l-1.1-1.86H476.2v1.86h-0.5v-4.45h1.421a1.349,1.349,0,0,1,1.387,1.31,1.259,1.259,0,0,1-1.021,1.24Zm-0.61-3.14a0.879,0.879,0,0,0-.934-0.86H476.2v1.7h0.868A0.864,0.864,0,0,0,478,4992.69Zm-7.858,30.67q-3.865,5.415-11.67,7.89a38.486,38.486,0,0,1-11.874,1.79q-11.313,0-19.32-5.02-9.558-5.985-9.561-16.71,0-10.59,8.577-16.37,7.605-5.115,19.714-5.25a38,38,0,0,1,14.4,2.61,20.43,20.43,0,0,1,10.443,9.04,21.808,21.808,0,0,1,2.78,10.9A18.79,18.79,0,0,1,470.146,5023.36Zm-11.082-25.2a11.7,11.7,0,0,0-5.245-3.68,22.327,22.327,0,0,0-7.869-1.36,19.7,19.7,0,0,0-9.576,2.23q-7.509,4.155-7.506,16.73,0,7.98,3.6,12.48a12.52,12.52,0,0,0,5.48,3.67,21.739,21.739,0,0,0,7.793,1.37c5.424,0,9.53-1.52,12.347-4.59s4.217-7.54,4.217-13.44Q462.3,5002.42,459.064,4998.16Zm-50.852,34.28H386.3l5.854-3.92v-34.31l-5.854-3.93h21.908l-5.846,3.93v34.31Zm-24.923-3.57a37.9,37.9,0,0,0-12.371,5.86,24.253,24.253,0,0,0-5.443,5.27c-3.692-8.92-9.39-18.29-15.607-26.83-4.041.68-6.386,0.85-12.578,1.35v14l5.851,3.92H320.47l6.617-3.92v-13.59c-2.172.02-10.087-.88-10.087-0.88l1.9-4.26a32.3,32.3,0,0,0,8.191,1.19v-15.17a47.238,47.238,0,0,0-5.281-1.65c6.622-3.27,18.622-6.16,27.695-6.16,9.7,0,23.5,1.95,23.5,12.4,0,7.09-11.085,10.67-17.282,11.69,2.234,2.76,5.825,5.84,11.815,9.78C372.614,5025.22,378.993,5027.49,383.289,5028.87Zm-23.18-24.26a6.344,6.344,0,0,0,1.74-4.13c0-6.24-8.521-8.4-14.621-8.4a35.3,35.3,0,0,0-9.938,1.22v17.74a59.94,59.94,0,0,0,16.635-2.59A13.273,13.273,0,0,0,360.109,5004.61Z" transform="translate(-317 -4988)"/>
</svg>
